<svg width="64" height="64" viewBox="0 0 64 64" fill="none" xmlns="http://www.w3.org/2000/svg">
  <!-- Fundo circular com gradiente roxo -->
  <circle cx="32" cy="32" r="30" fill="url(#gradientReasoning)" stroke="#7c3aed" stroke-width="2"/>
  
  <!-- Cérebro principal mais detalhado -->
  <path d="M18 26c0-8 6-12 14-12s14 4 14 12c3-1 6 1 7 4s-1 7-4 8c3 3 2 8-3 10-3 2-7 1-9-1-3 3-7 3-10 0s-3-7 0-10c-3-1-5-5-4-8s4-5 7-4c-1-1-1-2 0-3z" 
        fill="white" opacity="0.95" stroke="#7c3aed" stroke-width="1.5"/>
  
  <!-- Hemisférios cerebrais -->
  <path d="M32 18 Q26 22 26 28 Q26 34 32 38" stroke="#7c3aed" stroke-width="1.5" fill="none" opacity="0.6"/>
  <path d="M32 18 Q38 22 38 28 Q38 34 32 38" stroke="#7c3aed" stroke-width="1.5" fill="none" opacity="0.6"/>
  
  <!-- Rede neural complexa -->
  <circle cx="24" cy="28" r="2" fill="#7c3aed" opacity="0.8"/>
  <circle cx="32" cy="24" r="2" fill="#7c3aed" opacity="0.8"/>
  <circle cx="40" cy="28" r="2" fill="#7c3aed" opacity="0.8"/>
  <circle cx="28" cy="32" r="1.5" fill="#a855f7" opacity="0.9"/>
  <circle cx="36" cy="32" r="1.5" fill="#a855f7" opacity="0.9"/>
  <circle cx="32" cy="36" r="1.5" fill="#a855f7" opacity="0.9"/>
  
  <!-- Conexões neurais avançadas -->
  <path d="M24 28 Q28 26 32 24" stroke="#7c3aed" stroke-width="1.5" fill="none" opacity="0.7"/>
  <path d="M32 24 Q36 26 40 28" stroke="#7c3aed" stroke-width="1.5" fill="none" opacity="0.7"/>
  <path d="M24 28 Q26 30 28 32" stroke="#a855f7" stroke-width="1.2" fill="none" opacity="0.8"/>
  <path d="M40 28 Q38 30 36 32" stroke="#a855f7" stroke-width="1.2" fill="none" opacity="0.8"/>
  <path d="M28 32 Q30 34 32 36" stroke="#a855f7" stroke-width="1.2" fill="none" opacity="0.8"/>
  <path d="M36 32 Q34 34 32 36" stroke="#a855f7" stroke-width="1.2" fill="none" opacity="0.8"/>
  
  <!-- Ondas de pensamento -->
  <path d="M12 20 Q16 18 20 20" stroke="white" stroke-width="1.5" fill="none" opacity="0.6"/>
  <path d="M44 20 Q48 18 52 20" stroke="white" stroke-width="1.5" fill="none" opacity="0.6"/>
  <path d="M14 44 Q18 46 22 44" stroke="white" stroke-width="1.5" fill="none" opacity="0.6"/>
  <path d="M42 44 Q46 46 50 44" stroke="white" stroke-width="1.5" fill="none" opacity="0.6"/>
  
  <!-- Símbolo de infinito representando raciocínio contínuo -->
  <path d="M26 48 Q28 46 30 48 Q32 50 34 48 Q36 46 38 48" stroke="white" stroke-width="2" fill="none" opacity="0.8"/>
  
  <!-- Gradiente -->
  <defs>
    <linearGradient id="gradientReasoning" x1="0%" y1="0%" x2="100%" y2="100%">
      <stop offset="0%" style="stop-color:#a855f7;stop-opacity:1" />
      <stop offset="50%" style="stop-color:#8b5cf6;stop-opacity:1" />
      <stop offset="100%" style="stop-color:#7c3aed;stop-opacity:1" />
    </linearGradient>
  </defs>
</svg>